<?xml version="1.0" encoding="UTF-8" standalone="no"?>
<!DOCTYPE svg PUBLIC "-//W3C//DTD SVG 1.1//EN" "http://www.w3.org/Graphics/SVG/1.1/DTD/svg11.dtd">
<svg width="100%" height="100%" viewBox="0 0 372 100" version="1.1" xmlns="http://www.w3.org/2000/svg" xmlns:xlink="http://www.w3.org/1999/xlink" xml:space="preserve" xmlns:serif="http://www.serif.com/" style="fill-rule:evenodd;clip-rule:evenodd;stroke-linejoin:round;stroke-miterlimit:2;">
    <g transform="matrix(0.76,0,0,0.76,4,12)">
        <g transform="matrix(1,0,-0.32492,1,30.1224,-2.00954)">
            <path d="M86,29.5C86,25.361 82.639,22 78.5,22L41.5,22C37.361,22 34,25.361 34,29.5C34,33.639 37.361,37 41.5,37L78.5,37C82.639,37 86,33.639 86,29.5Z" style="fill:rgb(0,150,197);fill-opacity:0.5;"/>
            <path d="M86,51.5C86,47.361 82.639,44 78.5,44L21.5,44C17.361,44 14,47.361 14,51.5C14,55.639 17.361,59 21.5,59L78.5,59C82.639,59 86,55.639 86,51.5Z" style="fill:rgb(0,150,197);fill-opacity:0.76;"/>
            <path d="M86,73.5C86,69.361 82.639,66 78.5,66L49.5,66C45.361,66 42,69.361 42,73.5C42,77.639 45.361,81 49.5,81L78.5,81C82.639,81 86,77.639 86,73.5Z" style="fill:rgb(0,150,197);"/>
        </g>
        <g transform="matrix(1.31579,0,0,1.31579,-0.749166,40.9502)">
            <path d="M114.842,11.219C114.842,12.179 114.778,13.043 114.65,13.811L95.21,13.811C95.37,15.731 96.042,17.235 97.226,18.323C98.41,19.411 99.866,19.955 101.594,19.955C104.09,19.955 105.866,18.883 106.922,16.739L114.17,16.739C113.402,19.299 111.93,21.403 109.754,23.051C107.578,24.699 104.906,25.523 101.738,25.523C99.178,25.523 96.882,24.955 94.85,23.819C92.818,22.683 91.234,21.075 90.098,18.995C88.962,16.915 88.394,14.515 88.394,11.795C88.394,9.043 88.954,6.627 90.074,4.547C91.194,2.467 92.762,0.867 94.778,-0.253C96.794,-1.373 99.114,-1.933 101.738,-1.933C104.266,-1.933 106.53,-1.389 108.53,-0.301C110.53,0.787 112.082,2.331 113.186,4.331C114.29,6.331 114.842,8.627 114.842,11.219ZM107.882,9.299C107.85,7.571 107.226,6.187 106.01,5.147C104.794,4.107 103.306,3.587 101.546,3.587C99.882,3.587 98.482,4.091 97.346,5.099C96.21,6.107 95.514,7.507 95.258,9.299L107.882,9.299Z" style="fill:rgb(44,47,55);fill-rule:nonzero;"/>
            <path d="M118.01,11.699C118.01,9.011 118.546,6.627 119.618,4.547C120.69,2.467 122.146,0.867 123.986,-0.253C125.826,-1.373 127.882,-1.933 130.154,-1.933C132.138,-1.933 133.874,-1.533 135.362,-0.733C136.85,0.067 138.042,1.075 138.938,2.291L138.938,-1.501L145.706,-1.501L145.706,25.091L138.938,25.091L138.938,21.203C138.074,22.451 136.882,23.483 135.362,24.299C133.842,25.115 132.09,25.523 130.106,25.523C127.866,25.523 125.826,24.947 123.986,23.795C122.146,22.643 120.69,21.019 119.618,18.923C118.546,16.827 118.01,14.419 118.01,11.699ZM138.938,11.795C138.938,10.163 138.618,8.763 137.978,7.595C137.338,6.427 136.474,5.531 135.386,4.907C134.298,4.283 133.13,3.971 131.882,3.971C130.634,3.971 129.482,4.275 128.426,4.883C127.37,5.491 126.514,6.379 125.858,7.547C125.202,8.715 124.874,10.099 124.874,11.699C124.874,13.299 125.202,14.699 125.858,15.899C126.514,17.099 127.378,18.019 128.45,18.659C129.522,19.299 130.666,19.619 131.882,19.619C133.13,19.619 134.298,19.307 135.386,18.683C136.474,18.059 137.338,17.163 137.978,15.995C138.618,14.827 138.938,13.427 138.938,11.795Z" style="fill:rgb(44,47,55);fill-rule:nonzero;"/>
            <path d="M162.458,25.523C160.282,25.523 158.33,25.131 156.602,24.347C154.874,23.563 153.506,22.499 152.498,21.155C151.49,19.811 150.938,18.323 150.842,16.691L157.61,16.691C157.738,17.715 158.242,18.563 159.122,19.235C160.002,19.907 161.098,20.243 162.41,20.243C163.69,20.243 164.69,19.987 165.41,19.475C166.13,18.963 166.49,18.307 166.49,17.507C166.49,16.643 166.05,15.995 165.17,15.563C164.29,15.131 162.89,14.659 160.97,14.147C158.986,13.667 157.362,13.171 156.098,12.659C154.834,12.147 153.746,11.363 152.834,10.307C151.922,9.251 151.466,7.827 151.466,6.035C151.466,4.563 151.89,3.219 152.738,2.003C153.586,0.787 154.802,-0.173 156.386,-0.877C157.97,-1.581 159.834,-1.933 161.978,-1.933C165.146,-1.933 167.674,-1.141 169.562,0.443C171.45,2.027 172.49,4.163 172.682,6.851L166.25,6.851C166.154,5.795 165.714,4.955 164.93,4.331C164.146,3.707 163.098,3.395 161.786,3.395C160.57,3.395 159.634,3.619 158.978,4.067C158.322,4.515 157.994,5.139 157.994,5.939C157.994,6.835 158.442,7.515 159.338,7.979C160.234,8.443 161.626,8.915 163.514,9.395C165.434,9.875 167.018,10.371 168.266,10.883C169.514,11.395 170.594,12.187 171.506,13.259C172.418,14.331 172.89,15.747 172.922,17.507C172.922,19.043 172.498,20.419 171.65,21.635C170.802,22.851 169.586,23.803 168.002,24.491C166.418,25.179 164.57,25.523 162.458,25.523Z" style="fill:rgb(44,47,55);fill-rule:nonzero;"/>
            <path d="M181.85,-4.669C180.666,-4.669 179.682,-5.045 178.898,-5.797C178.114,-6.549 177.722,-7.485 177.722,-8.605C177.722,-9.725 178.114,-10.661 178.898,-11.413C179.682,-12.165 180.666,-12.541 181.85,-12.541C183.034,-12.541 184.018,-12.165 184.802,-11.413C185.586,-10.661 185.978,-9.725 185.978,-8.605C185.978,-7.485 185.586,-6.549 184.802,-5.797C184.018,-5.045 183.034,-4.669 181.85,-4.669ZM185.162,-1.501L185.162,25.091L178.442,25.091L178.442,-1.501L185.162,-1.501Z" style="fill:rgb(44,47,55);fill-rule:nonzero;"/>
        </g>
        <g transform="matrix(1.31579,0,0,1.31579,138.892,40.9502)">
            <path d="M102.604,25.462C100.166,25.462 97.984,25.029 96.058,24.163C94.133,23.297 92.622,22.096 91.527,20.559C90.432,19.022 89.866,17.247 89.831,15.233L94.972,15.233C95.149,16.964 95.864,18.421 97.118,19.605C98.373,20.789 100.201,21.381 102.604,21.381C104.901,21.381 106.711,20.806 108.036,19.658C109.361,18.51 110.024,17.035 110.024,15.233C110.024,13.819 109.635,12.671 108.858,11.788C108.081,10.904 107.109,10.233 105.943,9.774C104.777,9.314 103.205,8.82 101.226,8.29C98.788,7.654 96.836,7.018 95.369,6.382C93.903,5.746 92.649,4.747 91.606,3.387C90.564,2.027 90.043,0.198 90.043,-2.098C90.043,-4.112 90.555,-5.897 91.58,-7.451C92.605,-9.006 94.044,-10.207 95.899,-11.055C97.754,-11.903 99.883,-12.327 102.286,-12.327C105.749,-12.327 108.584,-11.462 110.792,-9.73C113.001,-7.999 114.246,-5.702 114.529,-2.84L109.229,-2.84C109.052,-4.254 108.31,-5.499 107.003,-6.577C105.696,-7.655 103.964,-8.193 101.809,-8.193C99.795,-8.193 98.152,-7.672 96.88,-6.63C95.608,-5.588 94.972,-4.13 94.972,-2.257C94.972,-0.915 95.352,0.181 96.111,1.029C96.871,1.877 97.807,2.521 98.92,2.963C100.033,3.405 101.597,3.908 103.611,4.474C106.049,5.145 108.01,5.807 109.494,6.461C110.978,7.115 112.25,8.122 113.31,9.482C114.37,10.842 114.9,12.689 114.9,15.021C114.9,16.823 114.423,18.519 113.469,20.109C112.515,21.699 111.102,22.988 109.229,23.978C107.356,24.967 105.148,25.462 102.604,25.462Z" style="fill:rgb(0,150,197);fill-rule:nonzero;"/>
            <path d="M127.885,0.022L127.885,17.141C127.885,18.554 128.185,19.552 128.786,20.135C129.387,20.718 130.429,21.01 131.913,21.01L135.464,21.01L135.464,25.091L131.118,25.091C128.433,25.091 126.419,24.472 125.076,23.236C123.733,21.999 123.062,19.967 123.062,17.141L123.062,0.022L119.299,0.022L119.299,-3.953L123.062,-3.953L123.062,-11.267L127.885,-11.267L127.885,-3.953L135.464,-3.953L135.464,0.022L127.885,0.022Z" style="fill:rgb(0,150,197);fill-rule:nonzero;"/>
            <path d="M139.492,10.463C139.492,7.495 140.093,4.889 141.294,2.645C142.495,0.401 144.147,-1.339 146.249,-2.575C148.352,-3.812 150.693,-4.43 153.272,-4.43C155.816,-4.43 158.024,-3.883 159.897,-2.787C161.77,-1.692 163.165,-0.314 164.084,1.347L164.084,-3.953L168.96,-3.953L168.96,25.091L164.084,25.091L164.084,19.685C163.13,21.381 161.708,22.785 159.817,23.898C157.927,25.011 155.728,25.568 153.219,25.568C150.64,25.568 148.308,24.932 146.223,23.66C144.138,22.388 142.495,20.603 141.294,18.307C140.093,16.01 139.492,13.395 139.492,10.463ZM164.084,10.516C164.084,8.325 163.642,6.417 162.759,4.792C161.876,3.166 160.683,1.921 159.181,1.055C157.68,0.189 156.028,-0.243 154.226,-0.243C152.424,-0.243 150.781,0.181 149.297,1.029C147.813,1.877 146.629,3.113 145.746,4.739C144.863,6.364 144.421,8.272 144.421,10.463C144.421,12.689 144.863,14.623 145.746,16.266C146.629,17.909 147.813,19.163 149.297,20.029C150.781,20.895 152.424,21.328 154.226,21.328C156.028,21.328 157.68,20.895 159.181,20.029C160.683,19.163 161.876,17.909 162.759,16.266C163.642,14.623 164.084,12.706 164.084,10.516Z" style="fill:rgb(0,150,197);fill-rule:nonzero;"/>
            <path d="M175.32,10.516C175.32,7.512 175.921,4.889 177.122,2.645C178.323,0.401 179.993,-1.339 182.13,-2.575C184.268,-3.812 186.715,-4.43 189.471,-4.43C193.04,-4.43 195.981,-3.565 198.295,-1.833C200.61,-0.102 202.138,2.301 202.88,5.375L197.686,5.375C197.191,3.608 196.228,2.212 194.797,1.188C193.366,0.163 191.591,-0.349 189.471,-0.349C186.715,-0.349 184.489,0.596 182.793,2.486C181.097,4.376 180.249,7.053 180.249,10.516C180.249,14.014 181.097,16.717 182.793,18.625C184.489,20.533 186.715,21.487 189.471,21.487C191.591,21.487 193.358,20.992 194.771,20.003C196.184,19.013 197.156,17.6 197.686,15.763L202.88,15.763C202.103,18.731 200.548,21.107 198.216,22.891C195.884,24.675 192.969,25.568 189.471,25.568C186.715,25.568 184.268,24.949 182.13,23.713C179.993,22.476 178.323,20.727 177.122,18.466C175.921,16.204 175.32,13.554 175.32,10.516Z" style="fill:rgb(0,150,197);fill-rule:nonzero;"/>
            <path d="M225.511,25.091L214.116,12.265L214.116,25.091L209.293,25.091L209.293,-14.129L214.116,-14.129L214.116,8.926L225.299,-3.953L232.03,-3.953L218.356,10.516L232.083,25.091L225.511,25.091Z" style="fill:rgb(0,150,197);fill-rule:nonzero;"/>
        </g>
    </g>
</svg>
